<?xml version="1.0" encoding="UTF-8" standalone="no"?>
<!DOCTYPE svg PUBLIC "-//W3C//DTD SVG 1.1//EN" "http://www.w3.org/Graphics/SVG/1.1/DTD/svg11.dtd">
<svg version="1.1" xmlns="http://www.w3.org/2000/svg" xmlns:xlink="http://www.w3.org/1999/xlink" preserveAspectRatio="xMidYMid meet" viewBox="0 0 640 640" width="640" height="640"><defs><path d="" id="cnSX9ICXa"></path><path d="M364.56 99.69C370.54 94.54 379.55 95.21 384.69 101.18C389.96 107.29 396.43 114.81 401.7 120.92C406.84 126.89 406.17 135.9 400.2 141.05C358.18 177.26 242.91 276.58 200.89 312.79C194.92 317.93 185.91 317.26 180.76 311.29C175.5 305.18 169.02 297.66 163.76 291.56C158.61 285.58 159.28 276.57 165.25 271.43C207.28 235.22 322.54 135.9 364.56 99.69Z" id="a1VR0vhYc"></path><path d="M364.56 470.77C370.54 475.92 379.55 475.25 384.69 469.28C389.96 463.17 396.43 455.65 401.7 449.54C406.84 443.57 406.17 434.56 400.2 429.41C358.18 393.2 242.91 293.89 200.89 257.67C194.92 252.53 185.91 253.2 180.76 259.17C175.5 265.28 169.02 272.8 163.76 278.91C158.61 284.88 159.28 293.89 165.25 299.03C207.28 335.24 322.54 434.56 364.56 470.77Z" id="ayLF7jUtP"></path></defs><g><g><g><g><use xlink:href="#cnSX9ICXa" opacity="1" fill-opacity="0" stroke="#0d0af8" stroke-width="8" stroke-opacity="1"></use></g></g><g><g><use xlink:href="#a1VR0vhYc" opacity="1" fill="#fc30d8" fill-opacity="1"></use></g><g><use xlink:href="#ayLF7jUtP" opacity="1" fill="#fc30d8" fill-opacity="1"></use></g></g></g></g></svg>