<?xml version="1.0" encoding="UTF-8"?>
<svg width="29.323mm" height="224.53mm" version="1.1" viewBox="0 0 103.9 795.567" xmlns="http://www.w3.org/2000/svg">
 <g transform="translate(-332.89 -571.68)">
  <g transform="translate(200)">
   <path d="m161.05 841.55h20.958v9.635l-2.5242 6.2102-2.5222 6.2083-0.94152 3.953v0.93953h23.166l-0.63932-1.6685c-0.3518-0.91672-1.0981-3.7236-1.6588-6.2375-0.56068-2.5139-1.6671-5.5637-2.46-6.7794l-1.4424-2.2104v-10.05h18.962v-104h-50.898v104z" fill="#fefefe"/>
   <path d="m161 841.62h21v9.6543l-2.5293 6.2227-2.5273 6.2207-0.9434 3.9609v0.94141h23.213l-0.6406-1.6719c-0.3525-0.91855-1.1003-3.731-1.6621-6.25-0.5619-2.519-1.6703-5.5748-2.4649-6.793l-1.4453-2.2148v-10.07h19v-107h-51v107zm2-2v-86h33v86h-33zm17.012 26.75c0.01-0.1375 0.9071-3.1034 2-6.5898l1.9883-6.3398v-4.3281c0-2.381 0.2736-5.0421 0.6074-5.9121l0.6055-1.5801h3.7871v9.3672l1.8984 4.0664c1.0448 2.2361 2.1917 5.7539 2.5469 7.8164l0.6446 3.75h-7.045c-3.8749 0-7.0402-0.1125-7.0332-0.25zm17.988-26.75v-86h2v86h-2zm6 0v-86h3v86h-3z"/>
  </g>
  <g transform="matrix(.99146 0 0 1 201.64 0)">
   <path d="m160.83 734.34h51.256l-0.62123-4.1399c-0.63928-4.2612-6.3072-30.805-9.0392-42.33l-1.4663-6.1865v-33.65l-3.988-11.181-3.988-11.179v-26.828h-2.991v-26.92h-5.982v27.916h-1.994v22.67l-4.985 12.126-4.985 12.128v31.896l-2.475 12.184c-1.3611 6.7016-3.64 17.57-5.0649 24.15-1.4247 6.5802-2.8387 13.646-3.141 15.703l-0.53549 3.6414z" fill="#fefefe"/>
   <path d="m160.74 734.68h51.44l-0.6387-4.25c-0.6412-4.274-6.3262-30.898-9.0664-42.457l-1.4707-6.2051v-33.752l-4-11.215-4-11.213v-26.908h-3v-27h-6v28h-2v22.738l-5 12.162-5 12.164v31.992l-2.4824 12.221c-1.3652 6.7218-3.6511 17.623-5.0801 24.223-1.4291 6.6-2.8472 13.688-3.1504 15.75l-0.5508 3.75zm2.002-2 0.582-3.25c1.3329-7.4514 8.6315-41.465 9.2364-43.041l0.6562-1.709h15.748l0.5078 2.25c0.2784 1.2375 1.6354 11.579 3.0175 22.982s2.5137 21.191 2.5137 21.75v1.0176h-32.262zm11.262-51v-34h18v34h-18zm1-36v-0.78125c0-1.3058 7.0402-17.563 8.2227-18.988l1.1054-1.332 2.586 0.30078 2.5859 0.30079 2.7207 8c1.4962 4.4 2.734 9.0125 2.75 10.25l0.029 2.25h-20zm9-23v-22h6v22h-6zm2-24v-24h2v24h-2zm4.8418 86h1.9024l2.6601 17.25c1.463 9.4875 2.8949 19.05 3.1817 21.25 0.2867 2.2 0.7575 5.2375 1.0468 6.75l0.5254 2.75h-2.7988l-2.7149-21.25c-1.4936-11.688-2.9608-22.488-3.2597-24l-0.543-2.75zm4.1582-3v-34h2v34h-2zm0.9668 3.6992 0.5156-0.51562c0.981-0.98098 1.3352 0.39441 5.4727 21.316 2.2841 11.55 4.3886 22.238 4.6777 23.75l0.5254 2.75h-1.8183l-1.6993-9.25c-0.9342-5.0875-2.5459-13.3-3.582-18.25-1.0362-4.95-2.3807-11.431-2.9883-14.4l-1.1035-5.4004z"/>
  </g>
  <g transform="matrix(.96203 0 0 1 205.9 -52.95)">
   <path d="m149.5 1229.1v123.07c-5.6658 5.4416-11.333 10.882-17 16.322v13.242h17.281c0.13258 2.3738-2.8409 6.0775-0.0937 7.3359 1.9314 0.8747 4.1027 0.616 6.1582 0.6699-1.6134 4.0559-4.8261 7.7296-5.3438 12.047-0.87819 6.1414-2.9457 12.1-4.9863 17.947h55.98c-0.33374-5.0184-2.2461-9.9351-2.9062-14.812 2.4468-2.4398 2.397-5.0121 0.30924-7.6923-0.98397-2.4078-2.689-4.773-2.3971-7.4952 1.0176-0.4121 4.67 0.984 3.5723-1.1211-0.90867-2.3095-1.9069-4.583-2.8496-6.8789h10.545c-0.0931 2.3886-1.6991 6.4184-0.85491 7.7941 2.8714-0.7928 6.5427-2.3532 4.0717 1.9617-1.3413 3.8596-3.4663 7.3825-5.3965 10.965 2.6749 1.7811 1.6711 4.4298 0.90262 7.0209-0.71188 3.4026-1.7867 6.7766-1.9846 10.258h29.943c-1.8891-6.0041-3.7732-12.226-4.1874-18.459-2.0036-3.6984-4.0076-7.3965-6.0099-11.096 3.1819-0.9341 4.0054-2.6164 2.0254-5.2578-0.7717-1.1916-1.3106-3.3318 0.88281-2.9864 4.1044-0.3263 8.2274-0.1564 12.34-0.2011-0.27156-3.7698 0.5348-8.0529-0.38819-11.512-3.7611-3.135-7.741-6.1253-11.374-9.3451-2.3215-5.9349-0.76187-12.435-1.2127-18.642-0.0102-78.5-0.0191-157-0.0275-235.5h-77v122.36zm21.432 152.64h8.9766c-0.80823 2.6702-1.6176 5.3405-2.459 8 2.5327-0.6633 3.7313 0.3176 2.8032 2.7082-0.87383 3.5326-2.3897 7.0594-3.3891 10.411 3.0044-0.6773 3.4374 0.2895 2.4136 3.331-0.6673 4.2551-1.7873 8.4192-2.9898 12.55-3.6666 1.0349-2.7288-3.8554-3.8506-6.096-1.985-4.3813-8e-3 -9.3041-1.1371-13.709-1.3116-2.8233-2.6217-5.6472-3.9343-8.47 1.8214-1.1432 6.1451-0.9568 4.9785-3.9434-0.42981-1.7268-1.459-3.2087-2.2461-4.7812h0.83398z" fill="#fefefe"/>
   <path d="m132 1382.2h17.158l-0.6855 3.125-0.6875 3.123 1.3574 0.8613c0.7463 0.4729 2.3782 0.867 3.625 0.875l2.2656 0.016-2.5156 4.9668-2.5176 4.9668v1.9278c0 1.6422-2.9936 12.352-4.6836 16.756l-0.5312 1.3828h57.214l-0.016-1.25c-0.01-0.6875-0.6806-4.073-1.4941-7.5234l-1.4785-6.2734 1.2109-1.9395 1.2109-1.9394-2.2168-4.5645c-1.2195-2.5102-2.2167-5.0018-2.2167-5.5371v-0.9727h2c2.3945 0 2.3777 0.1478 0.4863-4.3789l-1.5137-3.6211h9.2031l-0.6836 4.043-0.6836 4.043 2.7071-0.6797 2.7051-0.6797-0.7149 2.3867c-0.3933 1.3124-1.7957 4.3615-3.1172 6.7754l-2.4023 4.3887 1.0234 1.2344 1.0254 1.2343-1.5019 6.377c-0.8267 3.5068-1.5116 6.9394-1.5196 7.6269l-0.014 1.25h31.134l-0.7188-2.25c-1.7277-5.4062-3.3934-12.415-3.4043-14.324l-0.012-2.0723-3.0371-5.6054-3.0371-5.6074 1.7422-0.9747 1.7402-0.9746-1.205-2.6425c-0.6624-1.4537-1.2032-2.8486-1.2032-3.0977s3.15-0.4512 7-0.4512h7v-11.936l-5.8925-4.7832-5.8907-4.7813-0.5957-2-0.5937-2-0.014-125.25-0.014-125.25h-78v245.72l-8.5 8.1621-8.5 8.1602v13.955zm3-3v-11.545l6.3457-6.2285c3.4898-3.4255 6.6398-6.2265 7-6.2265 0.3603 0 0.6543 0.8055 0.6543 1.791v1.791l-4.5 4.418-4.5 4.416v11.584h-5zm7 0v-10.672l6.9024-6.6641c3.7965-3.6652 7.1715-6.664 7.5-6.664h0.5976l-0.125 3.25c-0.1294 3.3722-1.187 11.271-2.3144 17.281l-0.6524 3.4688h-11.908zm7 39 0.012-1.25c0.01-0.6875 0.6591-3.6859 1.4512-6.6621l1.4414-5.4121 0.9629-0.5938 0.9629-0.5957 6.6289 0.1328 6.6289 0.1348 0.623 0.623 0.6231 0.6231h-14.334v2h15v2h-16.119l0.6191 1 0.6172 1h15.883v3h-19v2.1523l3.25-0.1777c1.7875-0.098 6.0625-0.1319 9.5-0.076l6.25 0.1015v2h-21zm2-30.324v-1.2558c0-0.6913 0.2736-1.9699 0.6074-2.8399l0.6055-1.58h15.572l0.6074 1.58c0.3338 0.87 0.6074 2.1685 0.6074 2.8848v1.3027l-9-0.045-9-0.047zm0-157.68v-101h13v-21h28v21h16v101h-3v-99h-2v99h-52zm0.9707 171 3.0293-6 3.0293-6h5.8262l2.0723 5.5371c1.1395 3.0456 2.0722 5.7456 2.0722 6 0 0.2543-3.6057 0.4629-8.0137 0.4629h-8.0156zm5.0176-23.25c-0.01-0.6875 0.9874-9.6887 2.209-20.002l2.2207-18.752 0.709 1.2675c0.775 1.385 5.1429 20.707 6.8203 30.17 0.5784 3.2635 1.0527 6.526 1.0527 7.25v1.3164h-13l-0.012-1.25zm5.0117-51.725v-71.026h25v124h-11.752l-6.6231-26.488-6.625-26.486zm6.043 64.475 2.4785-0.9434 2.4785-0.9433v-1.3731c0-0.755-0.4658-2.2428-1.0351-3.3066l-1.0352-1.9336h8.3027l-0.6816 2.25c-0.3751 1.2375-0.9292 3.0375-1.2324 4l-0.5528 1.75h3.2344l-0.074 1.25c-0.04 0.6875-0.9112 3.6125-1.9375 6.5l-1.8672 5.25 0.6895 0.1172c0.379 0.065 1.0875 0.045 1.5742-0.045l0.8848-0.1641-0.627 3.7969c-0.3444 2.0872-1.101 5.4824-1.6816 7.5449l-1.0547 3.75h-1.5293l-1.211-4.75-1.2109-4.75 0.1348-4.5 0.1328-4.5-2.0899-4.5-2.0898-4.5zm10.957 27.5v-1.6856c0-0.9264 0.7334-4.3014 1.6309-7.5l1.6328-5.8144h12.736v2h-11v2h12v2h-14v2h15v3h-15v2.1523l8.002-0.3262 8.0019-0.3261v2.5h-19zm0.75-17 0.5528-2.75c0.3037-1.5125 1.0231-3.9875 1.5996-5.5l1.0488-2.75h9.8144l0.5821 1.75c0.3194 0.9625 1.2181 3.4375 1.998 5.5l1.418 3.75h-17.014zm0.3828-14.201 1.0938-2.4004 1.0937-2.3984h12.445l0.6036 2.25c0.3316 1.2375 0.6101 2.5875 0.6171 3l0.014 0.75h-14.666l-0.6015-0.6016-0.5996-0.5996zm26.088 31.201 1.7012-6.75 1.7012-6.75 8.9375-0.074 8.9394-0.072-7.25 0.3672-7.25 0.3652v1.9141h15v2h-16v2h17v3h-18v2h19v2h-23.78zm2.8867-32.275c-0.011-0.4128 0.1457-0.9465 0.3692-1.6504l0.6582-2.0742h10.795l1.0352 1.9336c0.5693 1.0638 1.0351 2.3973 1.0351 2.9629v1.0273l-6.6426-0.4375c-5.6866-0.375-7.2172-0.5234-7.25-1.7617zm0.8828 14.025c0-0.6875 1.0018-3.3875 2.2364-6l2.2461-4.75h6.3808l2.5723 5.6191c1.4153 3.0915 2.5723 5.7915 2.5723 6 0 0.2086-3.6 0.3809-8 0.3809h-8l-0.01-1.25zm3.0098-169.75v-101h4v-21h4v122h-8zm0.9492 25h7.0508l-0.08 48.75c-0.043 26.812-0.25 48.3-0.4609 47.75-0.211-0.55-1.6329-6.85-3.1582-14l-2.7735-13-0.289-34.75-0.2891-34.75zm8.8184 106.87c0.049-4.2903 3.181-1.5058 11.482 5.9785l3.75 3.3809v8.7676h-11.963l-0.4785-2.25c-1.7404-8.1814-2.8203-13.303-2.791-15.877z"/>
  </g>
  <g transform="matrix(.97403 0 0 1 204.09 -.22426)">
   <path d="m160.57 845.06c-3.6427 13.948-7.6322 27.851-11.064 41.826v129.81c2.5923 0.5888 7.1316-1.654 7.4875 2.1877 0.7263 2.0854 1.7468 4.1321 1.9695 6.3533 1.7824 0.8826 7.1769-0.9263 6.0346 2.14-0.74856 3.205-1.055 6.7222-2.0561 9.7487-3.6284 1.0199-2.5329 5.2065-3.3621 8.1013 1.0841 2.7643-3.9448 3.2776-2.2336 5.3752 20.305-0.1445 40.634 0.361 60.922-0.4902 1.6568-1.4275-0.97373-5.0964-1.1582-7.3906-1.3211-4.5357-3.377-8.826-5.6035-12.949-0.41773-3.4242-0.26554-6.2785 3.9434-5.0761 2.0206-1.9842 3.5338-4.9975 3.0566-8 2.5458-0.6209 8.1282 1.7949 7-2.5v-130.7c-4.2188-13.746-8.2908-27.536-12.42-41.309-17.204-0.17604-34.408-0.35117-51.611-0.52539l-0.90429 3.3906zm12.156 179.64h12.805c-0.17202 5.0739-1.3475 10.617-5.0254 14.348-0.49232 1.8632 1.3538 7.9179-1.7617 5.0781-2.7952-1.076 0.31965-5.2744-3.067-6.3355-3.599-1.9931-2.2639-6.4898-3.1313-9.8678 0.26998-0.6632-1.1179-3.5826 0.18068-3.2224zm19.145 0h12.711c-0.523 3.7108-1.5346 7.3328-2.293 11-3.2865-0.4122-1.7765 4.8522-2.8733 7.0293-1.1796 2.7216-4.1393 2.8307-2.91-0.9121 1.2068-3.1347-1.9416-4.0985-3.0224-6.2294-0.60737-3.6576-1.1856-7.3335-2.2686-10.888h0.65625z" fill="#fefefe"/>
   <path d="m149 1017.2h6.8047l1.2461 3.25c0.6856 1.7875 1.292 3.7 1.3476 4.25l0.1016 1 3.0957 0.3007 3.0957 0.3028-1.0058 5.1972-1.0059 5.1993-1.2813 0.7656-1.2812 0.7676-0.668 4.4511-0.666 4.4512-1.3808 1.1445-1.3809 1.1465 0.5195 0.8399 0.5196 0.8398h30.008c16.504 0 30.602-0.2273 31.328-0.5058l1.3203-0.5059-1.7441-6.1973c-0.9594-3.4085-2.6966-7.9813-3.8594-10.16l-2.1133-3.961v-4.5761h3.8867l1.5567-2.2227c0.8562-1.2224 1.5566-3.0224 1.5566-4v-1.7773h7v-133.77l-1.4941-4.8652c-0.8213-2.6756-3.6426-12.063-6.2715-20.863l-4.7813-16-26.184-0.26758-26.184-0.26563-1.0039 3.7656c-0.552 2.0716-3.2713 12.233-6.043 22.58l-5.0391 18.812v130.88zm1.7852-131 0.6933-1.75c0.3806-0.9625 1.6771-5.575 2.8828-10.25l2.1934-8.5 16.223-0.27539 16.223-0.2754v21.05h-38.214zm0.2148 114v-112h71v112h-4.9082l-0.2969-6.6719-0.2949-6.6699-1.25-0.41211-1.25-0.41406v14.168h-49v-12h-3v12h-11zm8 20.6v-3.5996h58v3.5996l-1.2012 1.1992-1.1992 1.2012h-53.2l-1.2012-1.2012-1.1992-1.1992zm1.2871 27.354 1.0254-4.4766 1.0234-4.4765h10.727l0.3906 1.25c0.2149 0.6875 0.6709 2.9375 1.0137 5l0.6231 3.75h-6.8789c-3.7833 0-7.1129-0.236-7.4004-0.5235l-0.5235-0.5234zm4.4903-10.953 0.664-3.75c1.31-7.3917 2.7791-9.4435 3.9375-5.5 0.2828 0.9625 0.8142 3.4375 1.1797 5.5l0.6641 3.75h-6.4453zm7.9433-12h12.279l-0.09 1.75c-0.1617 3.139-2.0494 8.7138-3.4961 10.328l-1.414 1.5781v5.461l-1-0.6172-1-0.6192v-3.8047l-2.0293-1.8906-2.0293-1.8906-0.6114-5.1484-0.6093-5.1465zm8.0293 23 0.625-3.125c0.3438-1.7188 0.625-3.7438 0.625-4.5v-1.375h11l0.023 0.75c0.013 0.4125 0.4156 2.4375 0.8946 4.5l0.8711 3.75h-14.039zm4.1153-11 0.5136-1.75c0.2828-0.9625 0.815-3.4432 1.1817-5.5118 0.3666-2.0685 1.0401-3.9923 1.498-4.2753l0.834-0.5157 1.0469 3.7754c0.5766 2.0766 1.0517 4.7899 1.0547 6.0274l0.01 2.25h-6.1348zm6.1347-174v-20h11.906l3.0468 9.5117c1.6759 5.2316 3.0469 9.7316 3.0469 10 0 0.26842-4.05 0.48829-9 0.48829h-9zm0.8653 162h12.135l-0.1074 0.75c-0.059 0.4125-0.5351 2.6625-1.0586 5l-0.9512 4.25h-1.707l-0.6758 3.9941-0.6738 3.9941-0.9141 0.5645-0.9121 0.5645v-5.8731l-1.4746-1.2226-1.4726-1.2227-0.6133-3.6504c-0.3376-2.0072-0.8297-4.4359-1.0938-5.3984l-0.4804-1.75zm8.1347 24v-1.875c0-1.0313 0.2813-3.2813 0.625-5l0.625-3.125h11.631l0.4453 0.75c0.244 0.4125 0.7597 2.6625 1.1465 5l0.7031 4.25h-15.176zm3.8242-12 0.7032-4.25c0.3872-2.3375 1.1799-5.15 1.7617-6.25l1.0586-2 0.664 2.5c0.3649 1.375 0.9319 4.1875 1.2617 6.25l0.6016 3.75h-6.0508zm4.1758-40h2v-107h-2v107zm0-154h3.7832l0.6016 2.25c0.3309 1.2375 1.7041 5.7639 3.0508 10.061l2.4472 7.8125-1.6367-0.31445-1.6387-0.31641-3.25-8.9961c-1.7876-4.9482-3.2753-9.3336-3.3046-9.7461l-0.053-0.75zm4 141h6v-94h-6v94z"/>
  </g>
  <g transform="matrix(.94937 0 0 1 207.77 -42.779)">
   <path d="m149.5 1077.7v18h78v-36h-78v18z" fill="#fefefe"/>
   <path d="m149 1096.2h79v-37h-79v37zm15-2v-33h28v33h-28zm52 0v-33h10v33h-10z"/>
  </g>
 </g>
</svg>
